<svg xmlns="http://www.w3.org/2000/svg" viewBox="0 0 512 512">
  <defs>
    <linearGradient id="coverG" x1="10%" y1="0%" x2="90%" y2="100%">
      <stop offset="0%" stop-color="#1e3080"/>
      <stop offset="50%" stop-color="#142468"/>
      <stop offset="100%" stop-color="#0a1440"/>
    </linearGradient>
    <linearGradient id="coverSheen" x1="0%" y1="0%" x2="0%" y2="100%">
      <stop offset="0%" stop-color="rgba(255,255,255,0.07)"/>
      <stop offset="40%" stop-color="rgba(255,255,255,0)"/>
      <stop offset="100%" stop-color="rgba(0,0,0,0.15)"/>
    </linearGradient>
    <linearGradient id="goldG" x1="0%" y1="0%" x2="0%" y2="100%">
      <stop offset="0%" stop-color="#f8db65"/>
      <stop offset="45%" stop-color="#e8b830"/>
      <stop offset="100%" stop-color="#c08810"/>
    </linearGradient>
    <radialGradient id="silverG" cx="32%" cy="28%" r="65%">
      <stop offset="0%" stop-color="#f4f4f4"/>
      <stop offset="55%" stop-color="#c0c0c0"/>
      <stop offset="100%" stop-color="#808080"/>
    </radialGradient>
  </defs>
  <rect x="46" y="452" width="416" height="9" rx="3" fill="#ece5d0"/>
  <rect x="48" y="459" width="412" height="8" rx="3" fill="#e4ddc8"/>
  <rect x="50" y="465" width="408" height="7" rx="3" fill="#dcd6be"/>
  <rect x="30" y="36" width="432" height="424" rx="32" fill="url(#coverG)"/>
  <rect x="30" y="36" width="432" height="424" rx="32" fill="url(#coverSheen)"/>
  <rect x="30" y="36" width="432" height="424" rx="32" fill="none" stroke="rgba(80,110,200,0.25)" stroke-width="4"/>
  <rect x="50" y="56" width="390" height="384" rx="22" fill="none" stroke="rgba(255,255,255,0.38)" stroke-width="2.5" stroke-dasharray="11,8"/>
  <rect x="434" y="212" width="48" height="88" rx="12" fill="#0c1852"/>
  <rect x="436" y="214" width="44" height="84" rx="10" fill="#0f1e62" stroke="#1a2878" stroke-width="1"/>
  <circle cx="458" cy="256" r="24" fill="#b8b8b8" stroke="#a0a0a0" stroke-width="1.5"/>
  <circle cx="458" cy="256" r="18" fill="url(#silverG)"/>
  <circle cx="458" cy="256" r="11" fill="#c8c8c8" stroke="#a8a8a8" stroke-width="1"/>
  <g transform="translate(458,256) scale(0.62)">
    <path d="M0,-11 L2,-5 L10,0 L10,3 L2,2 L1,9 L4,11 L4,13 L0,12 L-4,13 L-4,11 L-1,9 L-2,2 L-10,3 L-10,0 L-2,-5 Z" fill="#606060"/>
  </g>
  <path d="M 248 196 C 242 187, 231 177, 216 167 C 205 160, 192 154, 177 151 C 165 148, 151 150, 140 157 C 132 162, 128 170, 131 178 C 134 185, 145 186, 160 184 C 176 182, 194 178, 213 181 C 227 184, 240 191, 248 196 Z" fill="url(#goldG)"/>
  <line x1="196" y1="155" x2="200" y2="180" stroke="rgba(0,10,50,0.30)" stroke-width="2.5"/>
  <line x1="174" y1="152" x2="175" y2="178" stroke="rgba(0,10,50,0.30)" stroke-width="2.5"/>
  <line x1="153" y1="156" x2="152" y2="179" stroke="rgba(0,10,50,0.30)" stroke-width="2.5"/>
  <path d="M 264 196 C 270 187, 281 177, 296 167 C 307 160, 320 154, 335 151 C 347 148, 361 150, 372 157 C 380 162, 384 170, 381 178 C 378 185, 367 186, 352 184 C 336 182, 318 178, 299 181 C 285 184, 272 191, 264 196 Z" fill="url(#goldG)"/>
  <line x1="316" y1="155" x2="312" y2="180" stroke="rgba(0,10,50,0.30)" stroke-width="2.5"/>
  <line x1="338" y1="152" x2="337" y2="178" stroke="rgba(0,10,50,0.30)" stroke-width="2.5"/>
  <line x1="359" y1="156" x2="360" y2="179" stroke="rgba(0,10,50,0.30)" stroke-width="2.5"/>
  <path d="M256,126 L261,140 L263,163 L261,185 L256,198 L251,185 L249,163 L251,140 Z" fill="url(#goldG)"/>
  <path d="M249,162 L224,171 L224,175 L249,168 L263,168 L263,171 L288,162 L263,168 Z" fill="url(#goldG)"/>
  <path d="M251,191 L243,208 L256,203 L269,208 L261,191 Z" fill="url(#goldG)"/>
  <text x="246" y="290" text-anchor="middle" font-family="Georgia, serif" font-size="70" font-weight="bold" letter-spacing="10" fill="url(#goldG)">PILOT</text>
  <text x="246" y="352" text-anchor="middle" font-family="Georgia, serif" font-size="42" letter-spacing="8" fill="url(#goldG)">LOGBOOK</text>
  <path d="M196,458 L224,458 L224,508 L210,494 L196,508 Z" fill="#0d1960"/>
  <path d="M198,460 L222,460 L222,502 L210,491 L198,502 Z" fill="#18267e" opacity="0.55"/>
</svg>
