<?xml version="1.0" encoding="UTF-8"?>
<svg xmlns="http://www.w3.org/2000/svg" width="1080" height="1920" viewBox="0 0 1080 1920" role="img" aria-label="Pilot Logbook Splash Vector">
  <defs>
    <linearGradient id="bg" x1="0" y1="0" x2="0" y2="1">
      <stop offset="0" stop-color="#061a35"/>
      <stop offset="0.58" stop-color="#092847"/>
      <stop offset="1" stop-color="#03101f"/>
    </linearGradient>
    <linearGradient id="gold" x1="0" y1="0" x2="1" y2="0">
      <stop offset="0" stop-color="#c89632"/>
      <stop offset="0.5" stop-color="#f0c96a"/>
      <stop offset="1" stop-color="#a87220"/>
    </linearGradient>
  </defs>
  <rect width="1080" height="1920" fill="url(#bg)"/>
  <g transform="translate(540 520)" fill="#ffffff">
    <path d="M-20,-155 C-12,-184 12,-184 20,-155 L28,-30 L92,-5 C111,3 109,21 89,18 L33,8 L38,84 L64,105 C74,113 69,126 56,120 L14,101 L-14,101 L-56,120 C-69,126 -74,113 -64,105 L-38,84 L-33,8 L-89,18 C-109,21 -111,3 -92,-5 L-28,-30 Z"/>
    <path d="M-55,-74 C-145,-108 -215,-118 -300,-110 C-237,-86 -178,-68 -85,-52 Z" opacity=".98"/>
    <path d="M-72,-37 C-156,-55 -225,-58 -298,-50 C-235,-24 -167,-13 -80,-17 Z" opacity=".96"/>
    <path d="M-82,2 C-160,-6 -226,0 -286,17 C-226,39 -157,43 -82,29 Z" opacity=".94"/>
    <path d="M55,-74 C145,-108 215,-118 300,-110 C237,-86 178,-68 85,-52 Z" opacity=".98"/>
    <path d="M72,-37 C156,-55 225,-58 298,-50 C235,-24 167,-13 80,-17 Z" opacity=".96"/>
    <path d="M82,2 C160,-6 226,0 286,17 C226,39 157,43 82,29 Z" opacity=".94"/>
  </g>
  <text x="540" y="775" text-anchor="middle" fill="#ffffff" font-family="Montserrat, Arial, sans-serif" font-size="98" letter-spacing="26">PILOT</text>
  <text x="540" y="875" text-anchor="middle" fill="#ffffff" font-family="Montserrat, Arial, sans-serif" font-size="58" letter-spacing="16">LOGBOOK</text>
  <rect x="360" y="960" width="360" height="3" fill="url(#gold)" opacity=".75"/>
  <text x="540" y="1045" text-anchor="middle" fill="#d7a646" font-family="Montserrat, Arial, sans-serif" font-size="32" font-weight="700" letter-spacing="4">LOG IT. REVIEW IT. FLY BETTER.</text>
  <text x="540" y="1770" text-anchor="middle" fill="#ffffff" opacity=".45" font-family="Montserrat, Arial, sans-serif" font-size="28" letter-spacing="6">YOUR FLIGHTS. YOUR STORY.</text>
</svg>
